{
    "asset": {
        "version": "2.0",
        "generator": "Open Asset Import Library (assimp v5.2.cf7d3637)"
    },
    "extensionsUsed": [
        "KHR_materials_volume",
        "FB_ngon_encoding"
    ],
    "accessors": [
        {
            "bufferView": 0,
            "byteOffset": 0,
            "componentType": 5126,
            "count": 6,
            "type": "VEC3",
            "max": [
                1.0,
                1.0,
                0.0
            ],
            "min": [
                -1.0,
                -1.0,
                0.0
            ]
        },
        {
            "bufferView": 1,
            "byteOffset": 0,
            "componentType": 5126,
            "count": 6,
            "type": "VEC3",
            "max": [
                0.0,
                0.0,
                1.0
            ],
            "min": [
                0.0,
                0.0,
                1.0
            ]
        },
        {
            "bufferView": 2,
            "byteOffset": 0,
            "componentType": 5125,
            "count": 6,
            "type": "SCALAR",
            "max": [
                5
            ],
            "min": [
                0
            ]
        },
        {
            "bufferView": 3,
            "byteOffset": 0,
            "componentType": 5126,
            "count": 936,
            "type": "VEC3",
            "max": [
                -0.1878647804260254,
                0.09584963321685791,
                0.10508584976196289
            ],
            "min": [
                -0.3842742443084717,
                -0.0034186244010925295,
                -0.09131193161010742
            ]
        },
        {
            "bufferView": 4,
            "byteOffset": 0,
            "componentType": 5126,
            "count": 936,
            "type": "VEC3",
            "max": [
                0.991447389125824,
                -0.11972524970769882,
                0.9928070902824402
            ],
            "min": [
                -0.991447389125824,
                -0.9999409914016724,
                -0.989966630935669
            ]
        },
        {
            "bufferView": 5,
            "byteOffset": 0,
            "componentType": 5125,
            "count": 936,
            "type": "SCALAR",
            "max": [
                935
            ],
            "min": [
                0
            ]
        },
        {
            "bufferView": 6,
            "byteOffset": 0,
            "componentType": 5126,
            "count": 9762,
            "type": "VEC3",
            "max": [
                4.656494617462158,
                4.86085319519043,
                1.348741054534912
            ],
            "min": [
                -4.656494617462158,
                -0.2681446075439453,
                -25.07656478881836
            ]
        },
        {
            "bufferView": 7,
            "byteOffset": 0,
            "componentType": 5126,
            "count": 9762,
            "type": "VEC3",
            "max": [
                0.9999994039535523,
                0.9982151389122009,
                0.9976857304573059
            ],
            "min": [
                -0.9999994039535523,
                -0.9999884366989136,
                -1.0
            ]
        },
        {
            "bufferView": 8,
            "byteOffset": 0,
            "componentType": 5126,
            "count": 9762,
            "type": "VEC4",
            "max": [
                1.0,
                1.0,
                1.0,
                1.0
            ],
            "min": [
                0.0941176563501358,
                0.019607843831181527,
                0.011764707043766976,
                1.0
            ]
        },
        {
            "bufferView": 9,
            "byteOffset": 0,
            "componentType": 5125,
            "count": 9762,
            "type": "SCALAR",
            "max": [
                9761
            ],
            "min": [
                0
            ]
        }
    ],
    "buffers": [
        {
            "byteLength": 455904,
            "uri": "result.bin"
        }
    ],
    "bufferViews": [
        {
            "buffer": 0,
            "byteOffset": 0,
            "byteLength": 72,
            "target": 34962
        },
        {
            "buffer": 0,
            "byteOffset": 72,
            "byteLength": 72,
            "target": 34962
        },
        {
            "buffer": 0,
            "byteOffset": 144,
            "byteLength": 24,
            "target": 34963
        },
        {
            "buffer": 0,
            "byteOffset": 168,
            "byteLength": 11232,
            "target": 34962
        },
        {
            "buffer": 0,
            "byteOffset": 11400,
            "byteLength": 11232,
            "target": 34962
        },
        {
            "buffer": 0,
            "byteOffset": 22632,
            "byteLength": 3744,
            "target": 34963
        },
        {
            "buffer": 0,
            "byteOffset": 26376,
            "byteLength": 117144,
            "target": 34962
        },
        {
            "buffer": 0,
            "byteOffset": 143520,
            "byteLength": 117144,
            "target": 34962
        },
        {
            "buffer": 0,
            "byteOffset": 260664,
            "byteLength": 156192,
            "target": 34962
        },
        {
            "buffer": 0,
            "byteOffset": 416856,
            "byteLength": 39048,
            "target": 34963
        }
    ],
    "materials": [
        {
            "name": "DefaultMaterial",
            "pbrMetallicRoughness": {
                "baseColorFactor": [
                    0.6000000238418579,
                    0.6000000238418579,
                    0.6000000238418579,
                    1.0
                ],
                "metallicFactor": 0.0
            }
        }
    ],
    "meshes": [
        {
            "name": "Plane.002",
            "primitives": [
                {
                    "extensions": {
                        "FB_ngon_encoding": {}
                    },
                    "mode": 4,
                    "material": 0,
                    "indices": 2,
                    "attributes": {
                        "POSITION": 0,
                        "NORMAL": 1
                    }
                }
            ]
        },
        {
            "name": "Sphere.001",
            "primitives": [
                {
                    "extensions": {
                        "FB_ngon_encoding": {}
                    },
                    "mode": 4,
                    "material": 0,
                    "indices": 5,
                    "attributes": {
                        "POSITION": 3,
                        "NORMAL": 4
                    }
                }
            ]
        },
        {
            "name": "Plane",
            "primitives": [
                {
                    "extensions": {
                        "FB_ngon_encoding": {}
                    },
                    "mode": 4,
                    "material": 0,
                    "indices": 9,
                    "attributes": {
                        "POSITION": 6,
                        "NORMAL": 7,
                        "COLOR_0": 8
                    }
                }
            ]
        }
    ],
    "nodes": [
        {
            "name": "<BlenderRoot>",
            "children": [
                1,
                2,
                5,
                6,
                7,
                8,
                9
            ]
        },
        {
            "name": "Plane",
            "matrix": [
                1.4517436027526856,
                0.0,
                0.0,
                0.0,
                0.0,
                1.4517436027526856,
                0.0,
                0.0,
                0.0,
                0.0,
                1.4517436027526856,
                0.0,
                0.0,
                0.0,
                0.0,
                1.0
            ],
            "mesh": 0
        },
        {
            "name": "metarig",
            "children": [
                3,
                4
            ]
        },
        {
            "name": "Sphere.001",
            "matrix": [
                1.0,
                -8.111593231688915e-15,
                -4.468661226643411e-15,
                0.0,
                1.2664906084047974e-14,
                1.0,
                8.67639027291034e-9,
                0.0,
                8.360366808297503e-15,
                -8.676352969416712e-9,
                1.0,
                0.0,
                0.1430349349975586,
                -0.7441558837890625,
                5.6705780029296879,
                1.0
            ],
            "mesh": 1
        },
        {
            "name": "body",
            "matrix": [
                0.23400059342384339,
                0.0,
                0.0,
                0.0,
                0.0,
                0.23400059342384339,
                0.0,
                0.0,
                0.0,
                0.0,
                0.23400059342384339,
                0.0,
                0.0,
                -0.8443511724472046,
                5.869960784912109,
                1.0
            ],
            "mesh": 2
        },
        {
            "name": "Lamp.003",
            "matrix": [
                -0.29086464643478396,
                0.9551711678504944,
                -0.05518905818462372,
                0.0,
                -0.7711008191108704,
                -0.1998833566904068,
                0.6045247316360474,
                0.0,
                0.5663931965827942,
                0.21839119493961335,
                0.7946722507476807,
                0.0,
                1.3905744552612305,
                6.691152572631836,
                8.898504257202149,
                1.0
            ]
        },
        {
            "name": "Lamp.002",
            "matrix": [
                -0.29086464643478396,
                0.9551711678504944,
                -0.05518905818462372,
                0.0,
                -0.7711008191108704,
                -0.1998833566904068,
                0.6045247316360474,
                0.0,
                0.5663931965827942,
                0.21839119493961335,
                0.7946722507476807,
                0.0,
                -5.145352363586426,
                -5.1448163986206059,
                6.550809860229492,
                1.0
            ]
        },
        {
            "name": "Lamp.001",
            "matrix": [
                -0.29086464643478396,
                0.9551711678504944,
                -0.05518905818462372,
                0.0,
                -0.7711008191108704,
                -0.1998833566904068,
                0.6045247316360474,
                0.0,
                0.5663931965827942,
                0.21839119493961335,
                0.7946722507476807,
                0.0,
                -6.713974952697754,
                3.8628792762756349,
                7.9240570068359379,
                1.0
            ]
        },
        {
            "name": "Lamp",
            "matrix": [
                -0.29086464643478396,
                0.9551711678504944,
                -0.05518905818462372,
                0.0,
                -0.7711008191108704,
                -0.1998833566904068,
                0.6045247316360474,
                0.0,
                0.5663931965827942,
                0.21839119493961335,
                0.7946722507476807,
                0.0,
                4.076245307922363,
                -4.122835159301758,
                3.218190908432007,
                1.0
            ]
        },
        {
            "name": "Camera",
            "matrix": [
                -4.371138828673793e-8,
                1.0,
                0.0,
                0.0,
                4.371138828673793e-8,
                1.910685676922942e-15,
                1.0,
                0.0,
                1.0,
                4.371138828673793e-8,
                -4.371138828673793e-8,
                0.0,
                14.141566276550293,
                -0.2576065957546234,
                3.1901309490203859,
                1.0
            ]
        }
    ],
    "scenes": [
        {
            "nodes": [
                0
            ]
        }
    ],
    "scene": 0
}